<svg id="visual" viewBox="0 0 900 600" width="900" height="600" xmlns="http://www.w3.org/2000/svg" xmlns:xlink="http://www.w3.org/1999/xlink" version="1.1"><rect x="0" y="0" width="900" height="600" fill="#ffffff"></rect><path d="M0 394L21.5 402.8C43 411.7 86 429.3 128.8 442.5C171.7 455.7 214.3 464.3 257.2 455.8C300 447.3 343 421.7 385.8 422.8C428.7 424 471.3 452 514.2 449.5C557 447 600 414 642.8 410C685.7 406 728.3 431 771.2 445.7C814 460.3 857 464.7 878.5 466.8L900 469L900 601L878.5 601C857 601 814 601 771.2 601C728.3 601 685.7 601 642.8 601C600 601 557 601 514.2 601C471.3 601 428.7 601 385.8 601C343 601 300 601 257.2 601C214.3 601 171.7 601 128.8 601C86 601 43 601 21.5 601L0 601Z" fill="#ff5252" stroke-linecap="round" stroke-linejoin="miter"></path></svg>